<?xml version="1.0" standalone="no"?>
<!DOCTYPE svg PUBLIC "-//W3C//DTD SVG 20010904//EN"
 "http://www.w3.org/TR/2001/REC-SVG-20010904/DTD/svg10.dtd">
<svg version="1.0" xmlns="http://www.w3.org/2000/svg"
 width="512.000000pt" height="512.000000pt" viewBox="0 0 512.000000 512.000000"
 preserveAspectRatio="xMidYMid meet">
<metadata>
Created by potrace 1.16, written by Peter Selinger 2001-2019
</metadata>
<g transform="translate(0.000000,512.000000) scale(0.100000,-0.100000)"
fill="#000000" stroke="none">
<path d="M495 5004 c-233 -36 -425 -201 -480 -409 -20 -77 -20 -239 1 -319 54
-211 238 -369 471 -405 361 -56 674 128 738 434 64 304 -103 590 -395 680 -55
16 -271 29 -335 19z"/>
<path d="M3725 3494 c-231 -27 -402 -87 -534 -186 -89 -67 -199 -177 -262
-262 l-59 -79 0 226 0 227 -550 0 -550 0 0 -1655 0 -1655 550 0 550 0 0 954
c0 985 3 1059 41 1162 42 112 144 238 249 307 80 52 168 79 280 84 261 13 439
-109 525 -362 48 -141 48 -141 52 -1172 l4 -973 550 0 549 0 0 1043 c0 613 -4
1081 -10 1136 -21 198 -83 428 -153 566 -109 217 -325 431 -527 522 -81 36
-176 69 -255 87 -120 27 -342 42 -450 30z"/>
<path d="M60 1765 l0 -1655 555 0 555 0 0 1655 0 1655 -555 0 -555 0 0 -1655z"/>
</g>
</svg>
