<?xml version="1.0" standalone="no"?>
<!DOCTYPE svg PUBLIC "-//W3C//DTD SVG 20010904//EN"
 "http://www.w3.org/TR/2001/REC-SVG-20010904/DTD/svg10.dtd">
<svg version="1.0" xmlns="http://www.w3.org/2000/svg"
 width="512.000000pt" height="512.000000pt" viewBox="0 0 512.000000 512.000000"
 preserveAspectRatio="xMidYMid meet">
<metadata>
Created by potrace 1.16, written by Peter Selinger 2001-2019
</metadata>
<g transform="translate(0.000000,512.000000) scale(0.100000,-0.100000)"
fill="#000000" stroke="none">
<path d="M2350 5113 c-446 -46 -818 -176 -1121 -393 -114 -81 -283 -241 -363
-344 -205 -263 -324 -543 -372 -879 -22 -159 -15 -431 15 -562 47 -200 124
-385 227 -541 146 -222 432 -428 496 -357 17 18 118 383 118 424 0 12 -30 66
-66 120 -149 222 -219 495 -194 757 54 574 458 1033 1038 1181 111 29 296 51
422 51 568 0 1037 -278 1243 -736 115 -257 138 -581 66 -938 -100 -497 -380
-858 -749 -965 -106 -31 -274 -39 -360 -16 -185 48 -318 183 -350 355 -19 96
0 183 126 580 95 297 130 432 142 546 33 296 -95 493 -343 526 -302 40 -570
-197 -641 -569 -31 -164 -12 -393 47 -564 l30 -87 -190 -771 c-105 -424 -199
-813 -208 -864 -21 -113 -24 -513 -5 -682 21 -191 43 -339 52 -362 18 -43 54
-30 102 39 79 111 226 352 298 489 142 268 164 332 311 872 45 169 85 307 88
306 3 0 20 -19 36 -42 88 -121 303 -237 517 -278 84 -16 334 -17 428 0 335 57
614 195 854 422 384 363 596 892 596 1483 0 188 -15 314 -55 458 -199 718
-821 1220 -1653 1333 -103 14 -476 19 -582 8z"/>
</g>
</svg>
