<?xml version="1.0" standalone="no"?>
<!DOCTYPE svg PUBLIC "-//W3C//DTD SVG 20010904//EN"
 "http://www.w3.org/TR/2001/REC-SVG-20010904/DTD/svg10.dtd">
<svg version="1.0" xmlns="http://www.w3.org/2000/svg"
 width="225.000000pt" height="225.000000pt" viewBox="0 0 225.000000 225.000000"
 preserveAspectRatio="xMidYMid meet">
<metadata>
Created by potrace 1.16, written by Peter Selinger 2001-2019
</metadata>
<g transform="translate(0.000000,225.000000) scale(0.100000,-0.100000)"
fill="#000000" stroke="none">
<path d="M562 1690 c2 -5 104 -145 227 -310 l223 -301 -44 -47 c-24 -26 -124
-134 -223 -240 -99 -107 -181 -198 -183 -203 -2 -5 13 -9 33 -9 43 0 26 -16
274 253 96 103 179 186 184 184 6 -2 83 -100 171 -218 l161 -214 163 -3 c89
-1 162 1 162 6 0 4 -105 149 -234 322 l-235 314 59 66 c32 36 131 143 220 238
l161 172 -43 0 -43 0 -190 -204 c-104 -113 -195 -205 -201 -205 -7 -1 -81 91
-165 204 l-154 205 -163 0 c-102 0 -162 -4 -160 -10z m661 -545 l368 -490 -82
-3 c-69 -2 -85 0 -100 15 -27 29 -709 943 -716 959 -5 13 7 14 78 12 l84 -3
368 -490z"/>
</g>
</svg>
