<svg width="18" height="18" viewBox="0 0 18 18" fill="none" xmlns="http://www.w3.org/2000/svg">
<path d="M17.1287 8.89386L11.0696 2.85623L12.6601 1.26753C12.9501 0.977798 12.9504 0.507745 12.6606 0.217711C12.3709 -0.0723599 11.9009 -0.0725826 11.6108 0.217117L2.65287 9.1653C1.40143 9.51446 0.480621 10.6647 0.480621 12.026C0.480621 12.436 0.812969 12.7684 1.22297 12.7684C1.63296 12.7684 1.96531 12.436 1.96531 12.026C1.96531 11.4499 2.29517 10.9494 2.77591 10.7034L9.056 16.9619C9.63481 17.5401 10.3947 17.8291 11.1548 17.8291C11.915 17.8291 12.6752 17.5398 13.2536 16.9615L17.1303 13.0948C17.6912 12.5338 18.0001 11.7879 18 10.9946C17.9998 10.2011 17.6907 9.45537 17.1287 8.89386ZM16.0811 12.0442L12.2044 15.911C11.6258 16.4896 10.6841 16.4898 10.1047 15.9109L4.71666 10.5413H12.952C13.362 10.5413 13.6944 10.209 13.6944 9.799C13.6944 9.38901 13.362 9.05666 12.952 9.05666H4.86246L10.0192 3.90553L16.08 9.94487C16.3606 10.2253 16.5152 10.5981 16.5153 10.9948C16.5153 11.3915 16.3609 11.7644 16.0811 12.0442Z" fill="white"/>
</svg>
