<?xml version="1.0" standalone="no"?>
<!DOCTYPE svg PUBLIC "-//W3C//DTD SVG 20010904//EN"
 "http://www.w3.org/TR/2001/REC-SVG-20010904/DTD/svg10.dtd">
<svg version="1.0" xmlns="http://www.w3.org/2000/svg"
 width="512.000000pt" height="512.000000pt" viewBox="0 0 512.000000 512.000000"
 preserveAspectRatio="xMidYMid meet">
<metadata>
Created by potrace 1.16, written by Peter Selinger 2001-2019
</metadata>
<g transform="translate(0.000000,512.000000) scale(0.100000,-0.100000)"
fill="#000000" stroke="none">
<path d="M413 5106 c-137 -45 -243 -164 -274 -308 -16 -75 -5 -176 27 -250 26
-59 87 -123 988 -1025 l961 -963 -961 -962 c-901 -903 -962 -967 -988 -1026
-88 -202 -3 -438 192 -534 64 -32 72 -33 182 -33 194 0 69 -109 1366 1189
1297 1297 1189 1172 1189 1366 0 194 108 69 -1189 1366 -1285 1285 -1173 1187
-1351 1191 -64 2 -115 -2 -142 -11z"/>
<path d="M2299 5106 c-116 -44 -195 -114 -243 -216 -29 -60 -31 -73 -31 -175
0 -187 -89 -83 1014 -1187 l966 -968 -966 -968 c-1103 -1104 -1014 -1000
-1014 -1187 0 -102 2 -115 31 -175 39 -83 111 -155 194 -194 60 -29 73 -31
175 -31 198 0 75 -106 1339 1154 604 603 1118 1122 1142 1154 110 148 110 346
0 494 -24 32 -538 551 -1142 1154 -1255 1252 -1140 1152 -1329 1156 -65 2
-112 -2 -136 -11z"/>
</g>
</svg>
