<?xml version="1.0" standalone="no"?>
<svg version="1.0" xmlns="http://www.w3.org/2000/svg"
     width="512.000000pt" height="512.000000pt" viewBox="0 0 512.000000 512.000000"
     preserveAspectRatio="xMidYMid meet">
    <metadata>
        Created by potrace 1.16, written by Peter Selinger 2001-2019
    </metadata>
    <g transform="translate(0.000000,512.000000) scale(0.100000,-0.100000)"
       fill="#FFFFFF" stroke="none">
        <path d="M2996 4489 c-38 -55 -18 -78 119 -137 204 -89 421 -217 678 -400
l149 -106 -24 -18 c-13 -10 -99 -74 -193 -142 -163 -118 -283 -218 -332 -277
-51 -60 -15 -159 57 -159 86 0 431 242 648 453 96 95 102 103 102 142 0 22 -7
50 -15 63 -27 38 -441 316 -610 409 -174 97 -390 178 -504 190 -53 5 -60 4
-75 -18z"/>
        <path d="M2475 4184 c-330 -50 -589 -165 -837 -371 -314 -261 -548 -668 -652
-1135 -55 -247 -61 -301 -60 -633 0 -341 11 -443 74 -701 68 -275 219 -645
290 -709 27 -25 100 -31 137 -11 92 47 105 122 47 263 -92 222 -169 496 -205
733 -26 175 -36 475 -20 646 27 290 109 593 226 829 214 431 599 736 1022 810
169 29 470 29 715 -2 41 -5 50 -2 72 20 45 45 28 116 -33 146 -55 28 -190 70
-293 92 -68 15 -141 21 -273 24 -99 2 -193 1 -210 -1z"/>
    </g>
</svg>