<?xml version="1.0" standalone="no"?>
<!DOCTYPE svg PUBLIC "-//W3C//DTD SVG 20010904//EN"
 "http://www.w3.org/TR/2001/REC-SVG-20010904/DTD/svg10.dtd">
<svg version="1.0" xmlns="http://www.w3.org/2000/svg"
 width="512.000000pt" height="512.000000pt" viewBox="0 0 512.000000 512.000000"
 preserveAspectRatio="xMidYMid meet">
<metadata>
Created by potrace 1.16, written by Peter Selinger 2001-2019
</metadata>
<g transform="translate(0.000000,512.000000) scale(0.100000,-0.100000)"
fill="#000000" stroke="none">
<path d="M2448 5106 c-20 -7 -55 -24 -77 -37 -23 -14 -478 -486 -1081 -1124
-825 -872 -1046 -1111 -1068 -1155 -38 -77 -43 -200 -12 -282 71 -191 303
-278 488 -184 61 31 20 -11 1024 1053 458 485 835 882 838 882 3 0 347 -363
765 -805 1035 -1097 1039 -1101 1097 -1130 185 -94 417 -7 488 184 31 82 26
205 -12 282 -22 44 -241 281 -1053 1140 -563 597 -1046 1101 -1071 1121 -26
20 -69 44 -96 53 -60 19 -179 20 -230 2z"/>
<path d="M2497 2830 c-65 -11 -129 -44 -182 -93 -24 -23 -499 -523 -1055
-1111 -808 -856 -1016 -1081 -1038 -1125 -38 -79 -43 -200 -11 -286 31 -82
112 -163 194 -194 84 -32 217 -27 290 11 63 33 81 52 1056 1083 441 468 806
850 809 850 3 0 407 -423 897 -941 489 -517 902 -950 917 -962 81 -63 234 -81
343 -40 80 30 162 112 192 193 32 86 27 207 -11 286 -22 44 -233 272 -1052
1140 -564 596 -1047 1101 -1073 1121 -75 59 -179 84 -276 68z"/>
</g>
</svg>
